<?xml version="1.0" encoding="UTF-8"?>
<!DOCTYPE svg PUBLIC "-//W3C//DTD SVG 1.1//EN" "http://www.w3.org/Graphics/SVG/1.1/DTD/svg11.dtd">
<!-- Creator: CorelDRAW -->
<svg xmlns="http://www.w3.org/2000/svg" xml:space="preserve" width="498px" height="83px" style="shape-rendering:geometricPrecision; text-rendering:geometricPrecision; image-rendering:optimizeQuality; fill-rule:evenodd; clip-rule:evenodd"
viewBox="0 0 498 87.5604"
 xmlns:xlink="http://www.w3.org/1999/xlink">
 <defs>
  <style type="text/css">
   <![CDATA[
    .str1 {stroke:white;stroke-width:0.547253}
    .str0 {stroke:white;stroke-width:1.09451}
    .fil0 {fill:#0078C1}
   ]]>
  </style>
 </defs>
 <g id="Ebene_x0020_1">
  <metadata id="CorelCorpID_0Corel-Layer"/>
  <path class="fil0 str0" d="M40.1131 12.9799l27.8624 0c22.3874,-3.2422 44.8164,-6.05962 67.133,-8.22866 13.2578,-1.28867 26.5044,-2.36331 39.7501,-3.26792l-169.976 0 -2.14682 11.4966 24.3105 0 -1.24423 6.56922c4.48868,-0.743224 8.9831,-1.47496 13.4818,-2.19322l0.82876 -4.376zm-13.725 72.4684l11.943 -63.0593c-4.50115,0.72002 -8.99487,1.45378 -13.483,2.19974l-11.5263 60.8595 13.0663 0zm33.9558 -66.4559l-27.4537 66.4559 13.2431 0 7.13059 -18.2326 18.187 0 2.40419 18.2326 13.6845 0 -9.68041 -68.9641c-5.85719,0.8078 -11.6944,1.64482 -17.5154,2.50822zm2.31318 22.3565c0.529741,-1.35352 1.04646,-2.8594 1.61686,-4.47598 0.570347,-1.61664 1.13002,-3.24767 1.68641,-4.88002 0.561153,-1.64581 1.09264,-3.20329 1.58222,-4.65531l0.264597 0c0.103267,1.42209 0.223717,2.94893 0.342963,4.56551 0.12045,1.63158 0.254363,3.26343 0.401027,4.89501 0.148141,1.64652 0.270835,3.1913 0.450389,4.64054l1.94784 15.7177 -14.4789 0 6.18664 -15.8075zm36.2026 -24.0706l-9.12954 67.9006c1.55704,0.239423 3.53224,0.433479 5.93572,0.613525 2.38903,0.179061 5.20224,0.278114 8.42249,0.284571 4.01684,0.00826352 7.61316,-0.247413 10.7519,-0.733483 3.14271,-0.486836 5.90256,-1.23001 8.26888,-2.18551 2.37902,-0.960429 4.41885,-2.14534 6.12748,-3.54768 1.48322,-1.21731 2.80177,-2.55983 3.91707,-4.07172 1.11536,-1.51162 2.03113,-3.13198 2.74141,-4.85008 0.706832,-1.70962 1.19712,-3.45667 1.42959,-5.26906 0.378097,-2.94739 0.139878,-5.55265 -0.694354,-7.85882 -0.828267,-2.28927 -2.12515,-4.19644 -3.90831,-5.73346 -1.77698,-1.5316 -3.90038,-2.61948 -6.37019,-3.29309l0.0483771 -0.359381c2.54013,-0.942971 4.7229,-2.18551 6.53201,-3.71234 1.80916,-1.52684 3.24499,-3.24992 4.31416,-5.16431 1.06244,-1.90241 1.74032,-3.92134 2.01789,-6.03275 0.373609,-2.84314 0.110709,-5.37654 -0.760189,-7.58947 -0.872868,-2.21791 -2.25556,-4.00562 -4.11058,-5.43367 -1.41213,-1.0869 -2.98608,-1.97624 -4.7536,-2.6197 -1.76746,-0.64346 -3.75169,-1.09938 -5.96538,-1.37722 -2.19946,-0.275815 -4.66703,-0.412245 -7.40592,-0.404037 -2.22168,0.00651231 -4.40741,0.0668743 -6.57393,0.194548 -2.14934,0.12647 -4.16049,0.300278 -6.01327,0.509055 -1.86701,0.2102 -3.47615,0.463851 -4.82168,0.733483zm9.31884 27.214l2.46357 -18.3224c0.577352,-0.134679 1.34378,-0.254637 2.28079,-0.329227 0.936951,-0.0748095 2.12039,-0.11246 3.51801,-0.119684 1.4737,-0.00749736 2.83619,0.144146 4.08918,0.448911 1.2687,0.30876 2.34957,0.819785 3.26737,1.52684 0.908549,0.700046 1.56771,1.62955 1.99271,2.79925 0.423464,1.16521 0.512776,2.59075 0.290536,4.29615 -0.247905,1.9022 -0.962453,3.58117 -2.08897,5.02964 -1.13227,1.45553 -2.64241,2.59256 -4.50515,3.41305 -1.87527,0.82575 -4.05202,1.25748 -6.54055,1.25748l-4.7675 0zm3.55173 9.70016c1.69413,0 3.31602,0.179827 4.85282,0.568869 1.53652,0.389097 2.87953,1.01784 4.04502,1.871 1.16543,0.853222 2.03184,1.9613 2.59496,3.35318 0.563178,1.39216 0.732771,3.08558 0.465384,5.07457 -0.261587,1.94806 -0.837461,3.62429 -1.72084,5.02964 -0.875878,1.39363 -1.97049,2.53466 -3.30081,3.42799 -1.32205,0.887644 -2.7975,1.5403 -4.42782,1.96103 -1.61615,0.41728 -3.32204,0.628739 -5.10198,0.628739 -1.13303,0 -2.13013,-0.0224374 -2.96266,-0.0748095 -0.831003,-0.0520985 -1.5687,-0.149893 -2.1982,-0.284571l2.89831 -21.5556 4.85583 0zm-6.71364 -41.2126l388.1 0 2.14682 -11.4966 -201.058 0c-53.5504,1.14803 -107.203,3.17636 -158.62,8.17382 -10.2743,0.998627 -20.4581,2.11119 -30.5685,3.32275z"/>
  <g id="_120563912">
   <polygon id="_91716104" class="fil0 str1" points="202.217,35.6327 202.217,22.0339 199.091,22.0339 199.091,38.2721 208.023,38.2721 208.023,35.6327 "/>
   <path id="_91716032" class="fil0 str1" d="M209.903 26.5104l0 7.01064c0.00350242,1.17189 0.165599,2.12558 0.478573,2.85759 0.313247,0.735508 0.749736,1.27395 1.30936,1.61888 0.563178,0.341431 1.22109,0.510258 1.97077,0.506756 0.453946,-0.00350242 0.862197,-0.0598695 1.22481,-0.17233 0.365893,-0.112734 0.686091,-0.260383 0.964205,-0.439936 0.278059,-0.179554 0.513761,-0.373117 0.711045,-0.58058 0.200513,-0.207792 0.358888,-0.408305 0.478573,-0.601814l0.0633719 0 0.147649 1.56246 2.72417 0c-0.0211787,-0.496304 -0.0459145,-1.0452 -0.0670932,-1.64351 -0.0244622,-0.601814 -0.0351336,-1.24927 -0.038636,-1.94609l0 -8.17207 -3.12525 0 0 7.24278c-0.00350242,0.446941 -0.0950031,0.834287 -0.270835,1.16149 -0.179554,0.327202 -0.411753,0.58058 -0.700319,0.760134 -0.292069,0.179608 -0.608764,0.271109 -0.950195,0.274611 -0.425982,-0.00350242 -0.774417,-0.119684 -1.03825,-0.35566 -0.263885,-0.235647 -0.457449,-0.566352 -0.577133,-0.999338 -0.123187,-0.429429 -0.183056,-0.943245 -0.179554,-1.53805l0 -6.54596 -3.12525 0z"/>
   <path id="_91715960" class="fil0 str1" d="M221.538 28.8121l1.56246 0 0 9.45998 3.12525 0 0 -9.45998 2.32265 0 0 -2.30169 -2.34388 0c-0.00344769,-0.239204 0.00377604,-0.492582 0.0142286,-0.760189 0.0105073,-0.270835 0.0456409,-0.531218 0.0985055,-0.791875 0.0528646,-0.25688 0.140699,-0.492527 0.267388,-0.703767 0.123187,-0.211021 0.29579,-0.380122 0.517482,-0.506811 0.221747,-0.126689 0.506811,-0.190006 0.855192,-0.193509 0.242652,0 0.453891,0.0176763 0.64045,0.056367 0.186558,0.0351336 0.351938,0.0773268 0.499806,0.133639l0.232199 -2.4072c-0.232199,-0.0772721 -0.503308,-0.140644 -0.809277,-0.193509 -0.3098,-0.0528646 -0.658181,-0.0773268 -1.04903,-0.0810481 -0.58058,-0.00350242 -1.13298,0.0915007 -1.65402,0.274557 -0.520711,0.186558 -0.985383,0.478627 -1.39363,0.876425 -0.408251,0.397524 -0.728503,0.907783 -0.96415,1.53778 -0.235975,0.629997 -0.35566,1.38668 -0.359162,2.27356l0 0.485577 -1.56246 0 0 2.30169z"/>
   <path id="_91715888" class="fil0 str1" d="M229.139 26.5104l0 2.30169 1.54156 0 0 5.42694c-0.00350242,0.221692 0.00350242,0.478627 0.0209598,0.770641 0.0142286,0.288566 0.056367,0.594809 0.119684,0.911559 0.0668743,0.31675 0.168882,0.626495 0.313247,0.929016 0.14442,0.302795 0.341431,0.577133 0.594864,0.823506 0.253378,0.246428 0.573576,0.439936 0.96415,0.584356 0.390793,0.147649 0.86942,0.221747 1.42882,0.225195 0.457667,0 0.865918,-0.0246811 1.22831,-0.0740433 0.359107,-0.0491433 0.647674,-0.115963 0.862142,-0.200513l-0.0421385 -2.38602c-0.154873,0.0316859 -0.306243,0.0560934 -0.460896,0.0773268 -0.15137,0.0176763 -0.337929,0.0281835 -0.552671,0.0281835 -0.475125,0.00344769 -0.823506,-0.151425 -1.0522,-0.471622 -0.228697,-0.320252 -0.341431,-0.830511 -0.341431,-1.53433l0 -5.11019 2.59726 0 0 -2.30169 -2.59726 0 0 -3.06166 -3.08284 0.907838 0 2.15382 -1.54156 0z"/>
   <polygon id="_91715816" class="fil0 str1" points="237.607,30.7549 237.607,32.9087 243.392,32.9087 243.392,30.7549 "/>
   <path id="_91715744" class="fil0 str1" d="M250.044 26.5104l0 7.01064c0.00350242,1.17189 0.165599,2.12558 0.478573,2.85759 0.313247,0.735508 0.749736,1.27395 1.30936,1.61888 0.563178,0.341431 1.22109,0.510258 1.97077,0.506756 0.453891,-0.00350242 0.862197,-0.0598695 1.22481,-0.17233 0.365893,-0.112734 0.686091,-0.260383 0.964205,-0.439936 0.278059,-0.179554 0.513761,-0.373117 0.710991,-0.58058 0.200568,-0.207792 0.358888,-0.408305 0.478627,-0.601814l0.0633171 0 0.147649 1.56246 2.72422 0c-0.0211787,-0.496304 -0.0459145,-1.0452 -0.0670932,-1.64351 -0.0244622,-0.601814 -0.0351884,-1.24927 -0.038636,-1.94609l0 -8.17207 -3.12525 0 0 7.24278c-0.00350242,0.446941 -0.0950031,0.834287 -0.270835,1.16149 -0.179608,0.327202 -0.411753,0.58058 -0.700319,0.760134 -0.292069,0.179608 -0.608819,0.271109 -0.95025,0.274611 -0.425927,-0.00350242 -0.774363,-0.119684 -1.03825,-0.35566 -0.263831,-0.235647 -0.457394,-0.566352 -0.577078,-0.999338 -0.123241,-0.429429 -0.183056,-0.943245 -0.179554,-1.53805l0 -6.54596 -3.12525 0z"/>
   <path id="_91685224" class="fil0 str1" d="M262.816 28.1504c0.0139549,0.577406 0.0246811,1.20713 0.0246811,1.89349l0 8.22816 3.12498 0 0 -7.00341c0.00372132,-0.443384 0.0705956,-0.820004 0.193782,-1.13325 0.126689,-0.309745 0.292069,-0.559675 0.492582,-0.753184 0.200513,-0.190061 0.418703,-0.330705 0.651176,-0.418758 0.232199,-0.0879982 0.453891,-0.130191 0.668633,-0.130191 0.439936,0.00350242 0.79182,0.119739 1.05571,0.348436 0.263885,0.228697 0.453891,0.53494 0.570128,0.922011 0.116236,0.387072 0.172604,0.820058 0.168827,1.30564l0 6.86271 3.12525 0 0 -7.20042c-0.00350242,-0.823506 -0.102008,-1.53455 -0.295571,-2.13981 -0.190006,-0.601814 -0.461115,-1.10162 -0.806049,-1.49219 -0.348381,-0.394296 -0.75291,-0.686364 -1.21408,-0.876371 -0.461115,-0.190061 -0.96415,-0.285064 -1.50637,-0.285064 -0.425708,-0.00350242 -0.819785,0.0493622 -1.17889,0.154873 -0.358888,0.102008 -0.679141,0.242925 -0.964205,0.422205 -0.285064,0.176106 -0.531437,0.373117 -0.742677,0.587859 -0.211021,0.218244 -0.380122,0.432932 -0.513816,0.654678l-0.0633171 0 -0.147922 -1.58742 -2.70272 0c0.0211787,0.51398 0.0421385,1.06293 0.0598695,1.64001z"/>
   <path id="_91685152" class="fil0 str1" d="M276.471 27.8761c-0.439936,0.527771 -0.788318,1.17544 -1.03825,1.94609 -0.253378,0.770641 -0.383569,1.66124 -0.387072,2.66408 0.00350242,0.893883 0.116018,1.71038 0.33771,2.44611 0.225195,0.735508 0.538442,1.36895 0.946747,1.90044 0.404748,0.534721 0.886823,0.942971 1.443,1.23154 0.552452,0.288785 1.16494,0.436434 1.83357,0.439936 0.48213,-0.00350242 0.936021,-0.0807745 1.362,-0.235702 0.425708,-0.154873 0.80583,-0.373062 1.14026,-0.654624 0.334207,-0.285064 0.605262,-0.619271 0.81278,-1.01012l0.0633719 0 0.147868 1.66825 2.74513 0 -0.0421385 -0.992333c-0.0107262,-0.369615 -0.0211787,-0.756686 -0.0281835,-1.16149 -0.0107262,-0.404748 -0.0141738,-0.805775 -0.0141738,-1.20357l0 -13.6198 -3.12525 0 0 6.35574 -0.0421385 0c-0.154873,-0.27089 -0.365893,-0.506811 -0.6335,-0.714329 -0.267333,-0.204235 -0.587585,-0.366112 -0.953697,-0.482075 -0.369615,-0.116182 -0.78487,-0.172549 -1.24226,-0.176051 -0.636947,0 -1.24226,0.137142 -1.81239,0.404748 -0.566625,0.270835 -1.07344,0.668633 -1.51337,1.19312zm1.87226 3.12503c0.0985055,-0.443439 0.24993,-0.837516 0.450444,-1.17194 0.200513,-0.33771 0.450389,-0.601814 0.753184,-0.791875 0.299019,-0.190006 0.650902,-0.285064 1.0522,-0.288566 0.260383,0 0.513761,0.0529193 0.760189,0.158375 0.246373,0.105784 0.464618,0.264159 0.661629,0.478627 0.197011,0.21124 0.355386,0.478573 0.471622,0.795322 0.116236,0.320471 0.17233,0.693315 0.175832,1.1228l0 2.15382c-0.00350242,0.464618 -0.070322,0.855192 -0.197011,1.17889 -0.130191,0.323755 -0.299074,0.584356 -0.510313,0.78487 -0.207464,0.200513 -0.436434,0.344933 -0.682588,0.436489 -0.242925,0.0915007 -0.485851,0.133639 -0.721498,0.133639 -0.492801,-0.00350242 -0.918564,-0.15137 -1.27045,-0.446887 -0.351938,-0.292069 -0.622993,-0.703822 -0.809551,-1.23181 -0.190061,-0.531492 -0.285064,-1.15448 -0.285064,-1.86876 0,-0.513761 0.0493622,-0.996109 0.15137,-1.443z"/>
   <path id="_91685080" class="fil0 str1" d="M293.353 22.0339l0 16.2382 3.10402 0 0 -5.55336 1.20363 -1.62611 3.7587 7.17946 3.56869 0 -5.13142 -9.29087 4.89895 -6.94732 -3.71628 0 -3.48414 5.49009 -0.517482 0.92223c-0.175832,0.306024 -0.348436,0.619271 -0.517263,0.936021l-0.0633719 0 0 -7.34835 -3.10402 0z"/>
   <polygon id="_91685008" class="fil0 str1" points="306.34,21.2949 306.34,38.2721 309.465,38.2721 309.465,21.2949 "/>
   <path id="_91684936" class="fil0 str1" d="M312.146 23.3009c0.00344769,0.320198 0.0737697,0.605262 0.210966,0.855192 0.140918,0.249876 0.334426,0.446887 0.584356,0.591307 0.249876,0.144146 0.538442,0.218244 0.872649,0.221692 0.327476,-0.00344769 0.615988,-0.070322 0.86942,-0.207737 0.253378,-0.137142 0.453891,-0.330705 0.598311,-0.577078 0.144146,-0.24993 0.21819,-0.545447 0.221692,-0.883375 -0.00350242,-0.327257 -0.074098,-0.615769 -0.21124,-0.865699 -0.140644,-0.249876 -0.337929,-0.443439 -0.591307,-0.587804 -0.249657,-0.140699 -0.545447,-0.211021 -0.886878,-0.214742 -0.327202,0.00372132 -0.615769,0.0740433 -0.865699,0.214742 -0.246373,0.144365 -0.443384,0.337929 -0.584083,0.587804 -0.14442,0.24993 -0.214742,0.538442 -0.21819,0.865699z"/>
   <polygon id="_91684864" class="fil0 str1" points="315.398,26.5104 312.273,26.5104 312.273,38.2721 315.398,38.2721 "/>
   <path id="_91684792" class="fil0 str1" d="M321.501 27.4536c-0.200732,0.21124 -0.36956,0.425982 -0.506756,0.640724l-0.0633719 0 -0.147868 -1.58391 -2.66058 0c0.0211787,0.51398 0.0421385,1.06293 0.0598147,1.64001 0.0140097,0.577406 0.0247358,1.20713 0.0247358,1.89349l0 8.22816 3.06161 0 0 -7.08791c0.00372132,-0.390574 0.0598695,-0.735508 0.172604,-1.03102 0.11246,-0.299293 0.260383,-0.54572 0.443439,-0.742731 0.183056,-0.200513 0.383569,-0.348436 0.605262,-0.450444 0.218244,-0.0985055 0.439936,-0.147868 0.658181,-0.147868 0.404748,0.00350242 0.732005,0.119739 0.978378,0.341431 0.242707,0.221692 0.42226,0.520766 0.531218,0.900833 0.109232,0.376565 0.162151,0.799098 0.158375,1.27067l0 6.94705 3.06188 0 0 -7.13705c0.00350242,-0.411753 0.056367,-0.76391 0.16538,-1.05948 0.109232,-0.292014 0.249876,-0.53494 0.429429,-0.721498 0.176106,-0.186558 0.373117,-0.3237 0.591361,-0.411753 0.214468,-0.0877793 0.432713,-0.130191 0.650902,-0.130191 0.415255,0.00350242 0.746234,0.119739 0.996109,0.351884 0.253433,0.232473 0.436215,0.556173 0.548949,0.978433 0.112734,0.418703 0.168827,0.911559 0.165325,1.47818l0 6.65147 3.06193 0 0 -7.13705c-0.00350242,-0.848242 -0.0950578,-1.58019 -0.278114,-2.19273 -0.183056,-0.615769 -0.439936,-1.11908 -0.770641,-1.5096 -0.327476,-0.39435 -0.711045,-0.686364 -1.15098,-0.872923 -0.439663,-0.190061 -0.918509,-0.281562 -1.43232,-0.281562 -0.436434,-0.00350242 -0.85864,0.0598695 -1.27039,0.190006 -0.408305,0.130191 -0.79888,0.337983 -1.16844,0.626495 -0.373117,0.288566 -0.721553,0.672136 -1.04525,1.14726l-0.0421385 0c-0.154873,-0.404803 -0.376619,-0.753184 -0.665186,-1.04525 -0.285064,-0.292014 -0.626495,-0.517263 -1.02052,-0.675584 -0.394296,-0.161877 -0.830784,-0.239423 -1.31286,-0.242925 -0.436434,0.00350242 -0.830511,0.056367 -1.18239,0.165325 -0.351884,0.105784 -0.665131,0.24993 -0.93624,0.425982 -0.274338,0.175832 -0.510258,0.373117 -0.710827,0.584083z"/>
   <path id="_91684720" class="fil0 str1" d="M337.317 27.2705l0.591088 2.02741c0.387291,-0.235975 0.827008,-0.429484 1.32676,-0.577406 0.499806,-0.144146 1.02085,-0.221692 1.56624,-0.225195 0.563178,0.00350242 0.999338,0.0950578 1.30914,0.271109 0.306243,0.179335 0.517263,0.42226 0.636947,0.728503 0.116236,0.309745 0.172604,0.658181 0.16538,1.0487 -0.939524,0 -1.79822,0.088053 -2.57959,0.267388 -0.781367,0.179554 -1.45701,0.450663 -2.03058,0.816501 -0.57363,0.366167 -1.01707,0.827008 -1.33032,1.38318 -0.31675,0.555954 -0.475125,1.21408 -0.478573,1.96726 0,0.478627 0.0842769,0.929016 0.246154,1.3515 0.162096,0.425763 0.394296,0.798825 0.700538,1.12258 0.306024,0.327202 0.675638,0.584356 1.11207,0.767139 0.432713,0.186558 0.922011,0.281562 1.46746,0.285064 0.439936,0 0.851744,-0.0598695 1.24226,-0.17233 0.390848,-0.112734 0.742731,-0.278059 1.06293,-0.492801 0.320252,-0.218244 0.594864,-0.482075 0.820058,-0.791875l0.0633171 0 0.190061 1.22481 2.80823 0c-0.0421385,-0.242925 -0.0738244,-0.513761 -0.0985055,-0.813053 -0.0244075,-0.299019 -0.0421385,-0.615769 -0.0560934,-0.950195 -0.0107262,-0.337655 -0.0142286,-0.679086 -0.0142286,-1.02402l0 -4.30765c0.00350242,-0.651176 -0.0668196,-1.26694 -0.21124,-1.8513 -0.147649,-0.587585 -0.394022,-1.10857 -0.742458,-1.56596 -0.348436,-0.453946 -0.823506,-0.816556 -1.42532,-1.07694 -0.601814,-0.263831 -1.3585,-0.401246 -2.26656,-0.404748 -0.612266,0.00350242 -1.17889,0.056367 -1.69966,0.154873 -0.517482,0.0985055 -0.978378,0.221692 -1.37968,0.373117 -0.4013,0.15137 -0.732005,0.305969 -0.995836,0.464344zm3.32571 5.69433c0.330705,-0.154873 0.696872,-0.263885 1.10512,-0.327202 0.404529,-0.0598695 0.823506,-0.0915554 1.24921,-0.088053l0 1.68942c-0.00344769,0.372843 -0.070322,0.689593 -0.203961,0.950195 -0.130191,0.25688 -0.29579,0.467901 -0.499806,0.626276 -0.204289,0.158375 -0.418758,0.274557 -0.64045,0.344933 -0.225249,0.0705409 -0.429484,0.105729 -0.619545,0.105729 -0.263831,0 -0.506756,-0.056367 -0.732005,-0.169101 -0.221692,-0.109013 -0.401246,-0.285064 -0.53494,-0.520766 -0.137142,-0.239423 -0.207518,-0.541944 -0.21124,-0.915007 0.00372132,-0.425982 0.105729,-0.774417 0.299293,-1.05226 0.197011,-0.274557 0.457394,-0.489299 0.788318,-0.644171z"/>
   <path id="_91684648" class="fil0 str1" d="M347.79 26.5104l0 2.30169 1.54156 0 0 5.42694c-0.00350242,0.221692 0.00344769,0.478627 0.0209051,0.770641 0.0142286,0.288566 0.056367,0.594809 0.119739,0.911559 0.0668196,0.31675 0.168827,0.626495 0.313247,0.929016 0.14442,0.302795 0.341431,0.577133 0.594809,0.823506 0.253378,0.246428 0.57363,0.439936 0.964205,0.584356 0.390793,0.147649 0.869366,0.221747 1.42877,0.225195 0.457667,0 0.865918,-0.0246811 1.22831,-0.0740433 0.359162,-0.0491433 0.647728,-0.115963 0.862197,-0.200513l-0.0421385 -2.38602c-0.154873,0.0316859 -0.306297,0.0560934 -0.460896,0.0773268 -0.151425,0.0176763 -0.337929,0.0281835 -0.552671,0.0281835 -0.475125,0.00344769 -0.823506,-0.151425 -1.05226,-0.471622 -0.228697,-0.320252 -0.341376,-0.830511 -0.341376,-1.53433l0 -5.11019 2.59721 0 0 -2.30169 -2.59721 0 0 -3.06166 -3.08284 0.907838 0 2.15382 -1.54156 0z"/>
   <path id="_91684576" class="fil0 str1" d="M358.323 27.4995c-0.436434,0.390574 -0.802327,0.848187 -1.09812,1.37596 -0.299019,0.524487 -0.520766,1.10157 -0.675638,1.72111 -0.15137,0.622719 -0.228697,1.27389 -0.228697,1.95304 0.00350242,1.22481 0.228697,2.27701 0.672136,3.16038 0.443439,0.886878 1.08739,1.56624 1.93558,2.04831 0.848242,0.478627 1.87927,0.717777 3.09357,0.725 0.48908,0 0.960702,-0.0281835 1.41837,-0.0810481 0.457394,-0.0528646 0.886823,-0.130191 1.2879,-0.232199 0.404748,-0.102008 0.77086,-0.221692 1.09461,-0.36261l-0.443439 -2.15382c-0.397798,0.140918 -0.830511,0.25688 -1.30213,0.344933 -0.46812,0.0915007 -0.992607,0.137415 -1.56974,0.140918 -0.425708,0 -0.827008,-0.0528646 -1.20357,-0.154873 -0.376619,-0.105784 -0.710827,-0.271109 -1.00311,-0.496304 -0.292014,-0.225249 -0.527716,-0.517263 -0.703767,-0.872923 -0.175832,-0.355386 -0.274338,-0.784596 -0.299074,-1.2844l7.0316 0c0.0316859,-0.172604 0.0528646,-0.36261 0.0668196,-0.577133 0.0105073,-0.21124 0.017731,-0.436434 0.017731,-0.668633 -0.00372132,-1.27067 -0.200787,-2.33688 -0.587859,-3.19902 -0.387072,-0.865918 -0.929016,-1.5206 -1.63306,-1.96404 -0.703822,-0.439718 -1.53083,-0.665186 -2.48803,-0.665186 -0.689812,0.00377604 -1.31631,0.112734 -1.88293,0.330978 -0.562904,0.214742 -1.06271,0.520766 -1.49914,0.911559zm0.974876 3.65647c0.0209598,-0.295571 0.0773268,-0.601814 0.17233,-0.915061 0.0915554,-0.31675 0.228697,-0.608819 0.404803,-0.883375 0.179554,-0.270835 0.4013,-0.492582 0.672136,-0.665186 0.271109,-0.168827 0.594809,-0.25688 0.967926,-0.260328 0.383569,0.00344769 0.707269,0.0879982 0.967652,0.253378 0.260656,0.165325 0.46812,0.380067 0.622993,0.647674 0.151425,0.270835 0.263885,0.562904 0.327257,0.879654 0.0668196,0.31675 0.0950031,0.633445 0.0879982,0.943245l-4.22309 0z"/>
   <path id="_91684504" class="fil0 str1" d="M369.582 28.0696c-0.527989,0.563123 -0.932519,1.22103 -1.20713,1.97772 -0.278059,0.753184 -0.415201,1.57324 -0.418703,2.46012 0.00350242,0.935966 0.137142,1.7737 0.404529,2.50921 0.264104,0.739229 0.647674,1.36545 1.14398,1.87948 0.499532,0.517209 1.0944,0.907783 1.79121,1.17889 0.696817,0.270835 1.47818,0.404803 2.34033,0.408251 0.418758,-0.00344769 0.809551,-0.0281835 1.17544,-0.0740433 0.366112,-0.0491433 0.693315,-0.112515 0.978378,-0.190061 0.285064,-0.0738244 0.517263,-0.158375 0.696817,-0.242652l-0.337929 -2.34388c-0.253378,0.115963 -0.534721,0.211021 -0.847968,0.27784 -0.313247,0.0670932 -0.661629,0.102282 -1.05242,0.102282 -0.605316,-0.00350242 -1.14026,-0.14442 -1.60816,-0.429484 -0.46812,-0.285064 -0.837735,-0.696817 -1.10507,-1.23876 -0.271109,-0.538442 -0.408305,-1.19312 -0.411753,-1.96376 0,-0.521039 0.070322,-1.00311 0.207464,-1.44305 0.140918,-0.443439 0.341431,-0.830511 0.609038,-1.16122 0.263885,-0.327476 0.591088,-0.584356 0.974657,-0.770915 0.383569,-0.182782 0.820058,-0.274338 1.31286,-0.277785 0.42921,0.00344769 0.795322,0.0421385 1.09084,0.119465 0.299293,0.0740433 0.549223,0.161823 0.746234,0.260602l0.506756 -2.38624c-0.172549,-0.0703767 -0.383569,-0.140699 -0.633445,-0.207518 -0.253378,-0.0670932 -0.534994,-0.123187 -0.844739,-0.169101 -0.306243,-0.0421385 -0.629997,-0.0668196 -0.971374,-0.0668196 -0.974657,0.00350242 -1.84058,0.165325 -2.60427,0.478573 -0.760189,0.313247 -1.40414,0.749682 -1.93558,1.31286z"/>
   <path id="_91684432" class="fil0 str1" d="M378.493 21.2949l0 16.9771 3.12503 0 0 -7.13705c0.00372132,-0.436489 0.0705409,-0.802601 0.200732,-1.09812 0.130191,-0.299293 0.295571,-0.53494 0.499806,-0.711045 0.204016,-0.175832 0.418758,-0.302521 0.643952,-0.380067 0.228697,-0.0773268 0.439936,-0.115963 0.64045,-0.112515 0.446941,0.00350242 0.806049,0.123241 1.07344,0.355441 0.263831,0.232145 0.457394,0.548895 0.57363,0.950195 0.116182,0.397798 0.172549,0.848187 0.168827,1.355l0 6.77816 3.12525 0 0 -7.03154c-0.00350242,-0.865699 -0.0985602,-1.61188 -0.288566,-2.23837 -0.190061,-0.629997 -0.457394,-1.14726 -0.795377,-1.55201 -0.341376,-0.404803 -0.735453,-0.707324 -1.18612,-0.900833 -0.453891,-0.197285 -0.942971,-0.292342 -1.46746,-0.292342 -0.341431,-0.00344769 -0.700319,0.0529193 -1.07694,0.162151 -0.376565,0.105456 -0.74596,0.285064 -1.10507,0.527716 -0.355386,0.246428 -0.679141,0.570128 -0.964205,0.978378l-0.0423574 0 0 -6.6303 -3.12503 0z"/>
   <path id="_91684360" class="fil0 str1" d="M391.247 26.5104c0.0211787,0.51398 0.0421385,1.06293 0.0598147,1.64001 0.0140097,0.577406 0.0247358,1.20713 0.0247358,1.89349l0 8.22816 3.12498 0 0 -7.00341c0.00372132,-0.443384 0.0705409,-0.820004 0.193782,-1.13325 0.126689,-0.309745 0.292014,-0.559675 0.492527,-0.753184 0.200513,-0.190061 0.418758,-0.330705 0.651176,-0.418758 0.232199,-0.0879982 0.453946,-0.130191 0.668688,-0.130191 0.439936,0.00350242 0.79182,0.119739 1.05571,0.348436 0.263831,0.228697 0.453891,0.53494 0.570128,0.922011 0.116182,0.387072 0.172549,0.820058 0.168827,1.30564l0 6.86271 3.12525 0 0 -7.20042c-0.00350242,-0.823506 -0.102008,-1.53455 -0.295571,-2.13981 -0.190006,-0.601814 -0.461115,-1.10162 -0.806049,-1.49219 -0.348436,-0.394296 -0.752965,-0.686364 -1.21408,-0.876371 -0.461115,-0.190061 -0.964205,-0.285064 -1.50637,-0.285064 -0.425708,-0.00350242 -0.819785,0.0493622 -1.17895,0.154873 -0.358834,0.102008 -0.679086,0.242925 -0.96415,0.422205 -0.285064,0.176106 -0.531492,0.373117 -0.742731,0.587859 -0.210966,0.218244 -0.380067,0.432932 -0.513761,0.654678l-0.0633171 0 -0.147922 -1.58742 -2.70272 0z"/>
   <path id="_91684288" class="fil0 str1" d="M404.043 23.3009c0.00344769,0.320198 0.0738244,0.605262 0.210966,0.855192 0.140918,0.249876 0.334426,0.446887 0.584356,0.591307 0.249876,0.144146 0.538442,0.218244 0.872649,0.221692 0.327476,-0.00344769 0.615988,-0.070322 0.86942,-0.207737 0.253378,-0.137142 0.453891,-0.330705 0.598311,-0.577078 0.144146,-0.24993 0.21819,-0.545447 0.221692,-0.883375 -0.00350242,-0.327257 -0.0740433,-0.615769 -0.21124,-0.865699 -0.140644,-0.249876 -0.337929,-0.443439 -0.591307,-0.587804 -0.249657,-0.140699 -0.545447,-0.211021 -0.886878,-0.214742 -0.327202,0.00372132 -0.615769,0.0740433 -0.865699,0.214742 -0.246373,0.144365 -0.443384,0.337929 -0.584083,0.587804 -0.144365,0.24993 -0.214742,0.538442 -0.21819,0.865699z"/>
   <polygon id="_91576416" class="fil0 str1" points="407.295,26.5104 404.17,26.5104 404.17,38.2721 407.295,38.2721 "/>
   <path id="_91576344" class="fil0 str1" d="M410.104 21.2949l0 16.9771 3.12498 0 0 -3.90634 0.823506 -1.1193 2.74513 5.02564 3.71656 0 -4.30786 -6.92609 3.84325 -4.83558 -3.63201 0 -2.34388 3.67436c-0.137142,0.221747 -0.270835,0.453946 -0.397524,0.696872 -0.130465,0.242652 -0.257154,0.49603 -0.383843,0.760134l-0.0633171 0 0 -10.3469 -3.12498 0z"/>
   <path id="_91576272" class="fil0 str1" d="M429.02 23.248c-0.689867,0.457667 -1.2879,1.0278 -1.79121,1.70343 -0.503254,0.67936 -0.890325,1.46396 -1.16494,2.35455 -0.274611,0.89038 -0.415255,1.88622 -0.418758,2.98433 0,0.862197 0.0877793,1.67525 0.260383,2.43889 0.17233,0.763691 0.418758,1.46051 0.74596,2.09045 0.327476,0.629997 0.725,1.17544 1.18962,1.63661 0.682862,0.672081 1.49914,1.17189 2.44939,1.49909 0.950195,0.323755 2.04131,0.485632 3.27312,0.485632 0.619271,-0.00350242 1.22103,-0.0456409 1.80539,-0.130191 0.584083,-0.0808292 1.11908,-0.183056 1.60487,-0.306024 0.48908,-0.119739 0.893883,-0.242925 1.21408,-0.366112l0 -8.42523 -5.32116 0 0 2.47052 2.34383 0 0 3.96972c-0.137415,0.0668196 -0.344933,0.119739 -0.61949,0.165599 -0.274338,0.0421385 -0.601814,0.0668743 -0.985383,0.0668743 -0.672136,0 -1.29513,-0.119739 -1.86526,-0.35566 -0.566625,-0.235702 -1.06271,-0.591088 -1.48519,-1.06271 -0.422205,-0.475125 -0.749463,-1.06293 -0.981881,-1.77025 -0.232199,-0.707269 -0.351884,-1.53078 -0.355386,-2.47052 0.00350242,-0.981936 0.133694,-1.83012 0.387072,-2.54812 0.25688,-0.717777 0.612485,-1.30914 1.07338,-1.77726 0.457667,-0.464344 0.996109,-0.81278 1.61188,-1.03825 0.619545,-0.225195 1.28818,-0.337655 2.01668,-0.337655 0.478573,0 0.90428,0.0281835 1.2774,0.0772721 0.376619,0.0528646 0.714548,0.119739 1.01357,0.21124 0.299293,0.088053 0.570128,0.190061 0.813053,0.302521l0.654678 -2.57603c-0.260656,-0.126689 -0.584356,-0.242925 -0.967926,-0.344933 -0.380067,-0.102008 -0.809551,-0.179335 -1.28818,-0.239149 -0.478573,-0.0598695 -0.992333,-0.0915554 -1.545,-0.0915554 -0.936021,0 -1.82284,0.115963 -2.65686,0.348436 -0.834232,0.232199 -1.59792,0.577078 -2.28774,1.03447z"/>
   <path id="_91576200" class="fil0 str1" d="M440.722 26.5104c0.0211787,0.51398 0.0421385,1.06293 0.0598147,1.64001 0.0140097,0.577406 0.0247358,1.20713 0.0247358,1.89349l0 8.22816 3.06161 0 0 -7.08791c0.00372132,-0.390574 0.0598695,-0.735508 0.172604,-1.03102 0.11246,-0.299293 0.260383,-0.54572 0.443439,-0.742731 0.183056,-0.200513 0.383569,-0.348436 0.605262,-0.450444 0.218244,-0.0985055 0.439936,-0.147868 0.658181,-0.147868 0.404748,0.00350242 0.732005,0.119739 0.978378,0.341431 0.242707,0.221692 0.42226,0.520766 0.531218,0.900833 0.109232,0.376565 0.162151,0.799098 0.158375,1.27067l0 6.94705 3.06188 0 0 -7.13705c0.00350242,-0.411753 0.056367,-0.76391 0.16538,-1.05948 0.109232,-0.292014 0.249876,-0.53494 0.429429,-0.721498 0.176106,-0.186558 0.373117,-0.3237 0.591361,-0.411753 0.214468,-0.0877793 0.432713,-0.130191 0.650902,-0.130191 0.415255,0.00350242 0.746234,0.119739 0.996109,0.351884 0.253433,0.232473 0.436215,0.556173 0.548949,0.978433 0.112734,0.418703 0.168827,0.911559 0.165325,1.47818l0 6.65147 3.06193 0 0 -7.13705c-0.00350242,-0.848242 -0.0950578,-1.58019 -0.278114,-2.19273 -0.183056,-0.615769 -0.439936,-1.11908 -0.770641,-1.5096 -0.327476,-0.39435 -0.711045,-0.686364 -1.15098,-0.872923 -0.439663,-0.190061 -0.918509,-0.281562 -1.43232,-0.281562 -0.436434,-0.00350242 -0.85864,0.0598695 -1.27039,0.190006 -0.408305,0.130191 -0.79888,0.337983 -1.16844,0.626495 -0.373117,0.288566 -0.721553,0.672136 -1.04525,1.14726l-0.0421385 0c-0.154873,-0.404803 -0.376619,-0.753184 -0.665186,-1.04525 -0.285064,-0.292014 -0.626495,-0.517263 -1.02052,-0.675584 -0.394296,-0.161877 -0.830784,-0.239423 -1.31286,-0.242925 -0.436434,0.00350242 -0.830511,0.056367 -1.18239,0.165325 -0.351884,0.105784 -0.665131,0.24993 -0.93624,0.425982 -0.274338,0.175832 -0.510258,0.373117 -0.710827,0.584083 -0.200732,0.21124 -0.36956,0.425982 -0.506756,0.640724l-0.0633719 0 -0.147868 -1.58391 -2.66058 0z"/>
   <path id="_91576128" class="fil0 str1" d="M459.853 21.2949l0 13.5985c0,0.404803 -0.00350242,0.813053 -0.0107262,1.22481l-0.0316859 1.16844 -0.0421385 0.985383 2.66063 0 0.147868 -1.62583 0.0633719 0c0.373062,0.657907 0.830511,1.13675 1.36895,1.42882 0.541944,0.292069 1.14026,0.436434 1.79838,0.42921 0.48908,0 0.967707,-0.0842769 1.43232,-0.249876 0.46812,-0.16538 0.904554,-0.415255 1.31259,-0.752965 0.404803,-0.334426 0.76391,-0.753184 1.07344,-1.25994 0.309745,-0.503308 0.552671,-1.09812 0.728503,-1.77376 0.176051,-0.67936 0.264104,-1.4465 0.267607,-2.29824 -0.00350242,-0.879873 -0.10551,-1.6822 -0.309745,-2.4037 -0.207518,-0.721279 -0.499806,-1.34427 -0.879928,-1.86876 -0.380067,-0.520711 -0.837461,-0.925514 -1.36545,-1.21058 -0.531437,-0.281562 -1.12252,-0.425708 -1.7737,-0.429484 -0.749736,0.00377604 -1.39714,0.154873 -1.94609,0.447215 -0.545666,0.292014 -0.989105,0.700319 -1.32681,1.22103l-0.0424121 0 0 -6.6303 -3.12498 0zm3.12498 9.98775c0.00377604,-0.380122 0.0633719,-0.728503 0.179608,-1.03825 0.116182,-0.309526 0.274557,-0.577133 0.471568,-0.798825 0.200513,-0.225249 0.425763,-0.394077 0.675638,-0.513761 0.253378,-0.123241 0.514035,-0.183111 0.78487,-0.183111 0.4013,0.00350242 0.749682,0.0950578 1.0487,0.274611 0.299293,0.183056 0.549223,0.432986 0.746234,0.756686 0.197011,0.3237 0.344933,0.700319 0.443439,1.13325 0.0985055,0.432713 0.147649,0.900833 0.147649,1.40414 0,0.763636 -0.0950578,1.42182 -0.281343,1.97077 -0.183056,0.552671 -0.454165,0.974876 -0.809551,1.27395 -0.355386,0.29579 -0.788372,0.44716 -1.29513,0.450663 -0.418758,-0.00350242 -0.78487,-0.116236 -1.10162,-0.334481 -0.316695,-0.21819 -0.562849,-0.506756 -0.738955,-0.872649 -0.179554,-0.366112 -0.267333,-0.77086 -0.271109,-1.2213l0 -2.30169z"/>
   <polygon id="_91576056" class="fil0 str1" points="473.008,22.0339 473.008,38.2721 476.133,38.2721 476.133,31.2827 481.665,31.2827 481.665,38.2721 484.791,38.2721 484.791,22.0339 481.665,22.0339 481.665,28.5166 476.133,28.5166 476.133,22.0339 "/>
  </g>
 </g>
</svg>
